<?xml version="1.0" encoding="UTF-8"?>
<svg width="960px" height="960px" viewBox="0 0 960 960" version="1.1" xmlns="http://www.w3.org/2000/svg" xmlns:xlink="http://www.w3.org/1999/xlink">
  <title>com.enphase/drivers/gateway/ assets/icon</title>
  <g id="com.enphase/drivers/gateway" stroke="none" fill="none" fill-rule="nonzero">
    <path d="M125.58421,127.168335 L907.732268,138.366924 C935.611346,138.765903 958.002479,161.47977 958.002479,189.361702 L958.002479,713.652358 C958.002479,739.90034 938.079791,761.861872 911.955906,764.411234 L832.396004,772.175279 C824.651025,781.37313 813.419422,787.570181 800.609979,788.743666 L148.566538,848.47795 C141.364249,849.137758 134.103989,848.258148 127.26764,845.897501 L36.3562532,814.505064 C15.7969178,807.405759 2.00247863,788.048734 2.00247863,766.298185 L2.00247863,180.907564 C2.00247863,153.497005 23.6689426,130.988806 51.0596043,129.944585 L122.911546,127.205356 C123.802003,127.168335 124.693197,127.160805 125.58421,127.168335 Z M791.596576,485.429586 L153.985512,514.077659 C154.435248,515.703139 154.672454,517.404365 154.672454,519.143485 L154.671479,807.750335 L793.727474,749.207433 C793.700253,748.906712 793.686346,748.602148 793.686346,748.294337 L793.686346,487.427571 C793.686346,486.287767 792.735231,485.378426 791.596576,485.429586 Z M42.6403423,177.208547 L42.6059315,177.306355 C42.2147237,178.435684 42.0024786,179.647613 42.0024786,180.907564 L42.0024786,766.298185 C42.0024786,770.98948 44.9777498,775.164524 49.4121163,776.695747 L121.739987,801.670649 C122.747884,801.676636 123.771995,801.836323 124.781578,802.165342 L134.672454,805.388736 L134.672454,519.795461 L127.265497,516.529644 C126.36616,516.133115 125.513364,515.664564 124.712671,515.132525 C120.242505,514.304747 116.767669,510.486119 116.554846,505.749409 C116.493652,504.387433 116.707872,503.076871 117.148255,501.871604 C117.131856,501.574387 117.123937,501.275087 117.123937,500.974523 L117.123937,179.760002 L44.6156234,177.467591 C43.9372184,177.446143 43.2767364,177.357606 42.6403423,177.208547 Z M802.116642,178.219431 L801.949423,467.963005 C808.910559,471.642871 813.686346,478.956613 813.686346,487.427571 L813.685458,527.780503 C816.209167,525.929484 819.2795,524.770843 822.624345,524.591663 L868.385703,522.14026 C877.908631,521.630123 885.909988,529.214326 885.909988,538.750908 L885.909988,555.956238 C885.909988,564.797432 878.99388,572.093948 870.165344,572.566886 L824.403986,575.018289 C820.402037,575.23267 816.668804,574.017554 813.685198,571.828778 L813.685458,599.170945 C816.209167,597.319926 819.2795,596.161285 822.624345,595.982105 L868.385703,593.530702 C877.908631,593.020565 885.909988,600.604768 885.909988,610.14135 L885.909988,627.34668 C885.909988,636.187874 878.99388,643.48439 870.165344,643.957328 L824.403986,646.408731 C820.402037,646.623112 816.668804,645.407996 813.685198,643.21922 L813.685479,733.810335 L908.070865,724.600351 C913.705428,724.050488 918.002479,719.313687 918.002479,713.652358 L918.002479,189.361702 C918.002479,183.347952 913.173019,178.448883 907.159884,178.362829 L802.025512,176.857792 C802.085865,177.303039 802.11691,177.757588 802.116642,178.219431 Z M865.909988,613.692 L826.8797,615.782824 L826.8797,626.247433 L865.909988,624.156608 L865.909988,613.692 Z M865.909988,542.301558 L826.8797,544.392382 L826.8797,554.856991 L865.909988,552.766166 L865.909988,542.301558 Z M878.963279,464.639174 C886.229176,464.639174 892.866224,468.108573 897.532194,473.875143 C901.840789,479.20004 904.229732,486.180399 904.229732,493.506648 C904.229732,500.832896 901.840789,507.813255 897.532194,513.138152 C892.866224,518.904722 886.229176,522.374122 878.963279,522.374122 C871.697381,522.374122 865.060334,518.904722 860.394363,513.138152 C856.085769,507.813255 853.696825,500.832896 853.696825,493.506648 C853.696825,486.180399 856.085769,479.20004 860.394363,473.875143 C865.060334,468.108573 871.697381,464.639174 878.963279,464.639174 Z M878.963279,484.639174 C878.021086,484.639174 876.965274,485.191081 875.942168,486.455515 C874.561686,488.161622 873.696825,490.688698 873.696825,493.506648 C873.696825,496.324597 874.561686,498.851673 875.942168,500.55778 C876.965274,501.822215 878.021086,502.374122 878.963279,502.374122 C879.905471,502.374122 880.961283,501.822215 881.984389,500.55778 C883.364871,498.851673 884.229732,496.324597 884.229732,493.506648 C884.229732,490.688698 883.364871,488.161622 881.984389,486.455515 C880.961283,485.191081 879.905471,484.639174 878.963279,484.639174 Z M137.123937,177.822234 L137.123479,494.814335 L781.949479,465.842335 L782.116644,178.207836 C782.116967,177.651738 782.162675,177.106267 782.250264,176.574926 L133.724111,167.292701 C135.865068,170.256896 137.123937,173.896368 137.123937,177.822234 Z M856.57248,436.904226 C861.631338,436.904226 865.732352,441.698614 865.732352,447.612792 C865.732352,453.52697 861.631338,458.321358 856.57248,458.321358 C851.513622,458.321358 847.412608,453.52697 847.412608,447.612792 C847.412608,441.698614 851.513622,436.904226 856.57248,436.904226 Z M856.57248,393.050097 C861.631338,393.050097 865.732352,397.844485 865.732352,403.758663 C865.732352,409.672841 861.631338,414.46723 856.57248,414.46723 C851.513622,414.46723 847.412608,409.672841 847.412608,403.758663 C847.412608,397.844485 851.513622,393.050097 856.57248,393.050097 Z M878.963279,336.136378 C886.229176,336.136378 892.866224,339.605777 897.532194,345.372347 C901.840789,350.697244 904.229732,357.677604 904.229732,365.003852 C904.229732,372.3301 901.840789,379.31046 897.532194,384.635357 C892.866224,390.401927 886.229176,393.871326 878.963279,393.871326 C871.697381,393.871326 865.060334,390.401927 860.394363,384.635357 C856.085769,379.31046 853.696825,372.3301 853.696825,365.003852 C853.696825,357.677604 856.085769,350.697244 860.394363,345.372347 C865.060334,339.605777 871.697381,336.136378 878.963279,336.136378 Z M878.963279,356.136378 C878.021086,356.136378 876.965274,356.688285 875.942168,357.952719 C874.561686,359.658826 873.696825,362.185903 873.696825,365.003852 C873.696825,367.821801 874.561686,370.348878 875.942168,372.054985 C876.965274,373.319419 878.021086,373.871326 878.963279,373.871326 C879.905471,373.871326 880.961283,373.319419 881.984389,372.054985 C883.364871,370.348878 884.229732,367.821801 884.229732,365.003852 C884.229732,362.185903 883.364871,359.658826 881.984389,357.952719 C880.961283,356.688285 879.905471,356.136378 878.963279,356.136378 Z M856.57248,310.441157 C861.631338,310.441157 865.732352,315.235545 865.732352,321.149723 C865.732352,327.063901 861.631338,331.85829 856.57248,331.85829 C851.513622,331.85829 847.412608,327.063901 847.412608,321.149723 C847.412608,315.235545 851.513622,310.441157 856.57248,310.441157 Z M856.57248,266.587028 C861.631338,266.587028 865.732352,271.381417 865.732352,277.295595 C865.732352,283.209772 861.631338,288.004161 856.57248,288.004161 C851.513622,288.004161 847.412608,283.209772 847.412608,277.295595 C847.412608,271.381417 851.513622,266.587028 856.57248,266.587028 Z" id="Combined-Shape" fill="#000000"></path>
  </g>
</svg>
